<svg xmlns="http://www.w3.org/2000/svg" viewBox="0 0 420 260" role="img" aria-label="token-lens hero treemap" style="width:100%;height:auto;display:block;">
  <defs>
    <linearGradient id="bg" x1="0" y1="0" x2="1" y2="1">
      <stop offset="0" stop-color="#1e293b"/>
      <stop offset="1" stop-color="#0f172a"/>
    </linearGradient>
    <linearGradient id="rag" x1="0" y1="0" x2="1" y2="1">
      <stop offset="0" stop-color="#10b981"/><stop offset="1" stop-color="#059669"/>
    </linearGradient>
    <linearGradient id="sys" x1="0" y1="0" x2="1" y2="1">
      <stop offset="0" stop-color="#3b82f6"/><stop offset="1" stop-color="#1d4ed8"/>
    </linearGradient>
    <linearGradient id="user" x1="0" y1="0" x2="1" y2="1">
      <stop offset="0" stop-color="#06b6d4"/><stop offset="1" stop-color="#0891b2"/>
    </linearGradient>
  </defs>
  <rect x="0" y="0" width="420" height="260" rx="14" fill="url(#bg)"/>
  <rect x="20" y="20" width="380" height="150" rx="10" fill="url(#rag)"/>
  <text x="36" y="56" font="600 18px ui-sans-serif,system-ui" fill="#ecfdf5">rag &#183; 62%</text>
  <text x="36" y="78" font="500 12px ui-monospace,monospace" fill="#d1fae5">context_docs[0..n]  &#183;  3,420 tokens</text>
  <rect x="20" y="180" width="170" height="60" rx="10" fill="url(#sys)"/>
  <text x="34" y="210" font="600 14px ui-sans-serif,system-ui" fill="#eff6ff">system &#183; 14%</text>
  <text x="34" y="228" font="500 11px ui-monospace,monospace" fill="#dbeafe">instructions</text>
  <rect x="200" y="180" width="200" height="60" rx="10" fill="url(#user)"/>
  <text x="214" y="210" font="600 14px ui-sans-serif,system-ui" fill="#ecfeff">user &#183; 9%</text>
  <text x="214" y="228" font="500 11px ui-monospace,monospace" fill="#cffafe">live message</text>
  <g fill="#f8fafc" opacity="0.85">
    <rect x="50" y="100" width="4" height="4" rx="1"/>
    <rect x="58" y="100" width="4" height="4" rx="1"/>
    <rect x="66" y="100" width="4" height="4" rx="1"/>
    <rect x="74" y="100" width="4" height="4" rx="1"/>
    <rect x="82" y="100" width="4" height="4" rx="1"/>
    <rect x="90" y="100" width="4" height="4" rx="1"/>
    <rect x="98" y="100" width="4" height="4" rx="1"/>
    <rect x="106" y="100" width="4" height="4" rx="1"/>
    <rect x="114" y="100" width="4" height="4" rx="1"/>
    <rect x="122" y="100" width="4" height="4" rx="1"/>
    <rect x="130" y="100" width="4" height="4" rx="1"/>
    <rect x="138" y="100" width="4" height="4" rx="1"/>
    <rect x="146" y="100" width="4" height="4" rx="1"/>
    <rect x="154" y="100" width="4" height="4" rx="1"/>
    <rect x="162" y="100" width="4" height="4" rx="1"/>
    <rect x="170" y="100" width="4" height="4" rx="1"/>
    <rect x="178" y="100" width="4" height="4" rx="1"/>
    <rect x="186" y="100" width="4" height="4" rx="1"/>
    <rect x="194" y="100" width="4" height="4" rx="1"/>
    <rect x="202" y="100" width="4" height="4" rx="1"/>
    <rect x="210" y="100" width="4" height="4" rx="1"/>
    <rect x="218" y="100" width="4" height="4" rx="1"/>
    <rect x="226" y="100" width="4" height="4" rx="1"/>
    <rect x="234" y="100" width="4" height="4" rx="1"/>
    <rect x="242" y="100" width="4" height="4" rx="1"/>
    <rect x="250" y="100" width="4" height="4" rx="1"/>
    <rect x="258" y="100" width="4" height="4" rx="1"/>
    <rect x="266" y="100" width="4" height="4" rx="1"/>
    <rect x="274" y="100" width="4" height="4" rx="1"/>
    <rect x="282" y="100" width="4" height="4" rx="1"/>
    <rect x="290" y="100" width="4" height="4" rx="1"/>
    <rect x="298" y="100" width="4" height="4" rx="1"/>
    <rect x="306" y="100" width="4" height="4" rx="1"/>
    <rect x="314" y="100" width="4" height="4" rx="1"/>
    <rect x="322" y="100" width="4" height="4" rx="1"/>
    <rect x="330" y="100" width="4" height="4" rx="1"/>
    <rect x="338" y="100" width="4" height="4" rx="1"/>
    <rect x="346" y="100" width="4" height="4" rx="1"/>
    <rect x="354" y="100" width="4" height="4" rx="1"/>
  </g>
</svg>
